<svg version="1.1" id="Layer_1" xmlns="http://www.w3.org/2000/svg" xmlns:xlink="http://www.w3.org/1999/xlink" x="0px" y="0px"
	 width="100%" viewBox="0 0 1280 1280" enable-background="new 0 0 1280 1280" xml:space="preserve">
<path fill="#000000" opacity="1.000000" stroke="none" 
	d="
M818.000000,1281.000000 
	C545.333313,1281.000000 273.166656,1281.000000 1.000000,1281.000000 
	C1.000000,854.333313 1.000000,427.666656 1.000000,1.000000 
	C427.666656,1.000000 854.333313,1.000000 1281.000000,1.000000 
	C1281.000000,427.666656 1281.000000,854.333313 1281.000000,1281.000000 
	C1126.833374,1281.000000 972.666687,1281.000000 818.000000,1281.000000 
M702.501343,475.001007 
	C723.246887,454.165192 743.992493,433.329346 765.433472,411.795105 
	C761.968872,411.795105 759.392334,411.792328 756.815796,411.795502 
	C712.655701,411.850037 668.495300,411.996979 624.336060,411.833038 
	C619.360840,411.814606 616.028137,413.399658 612.659729,416.818451 
	C576.767090,453.248505 540.770630,489.576416 504.755280,525.885315 
	C485.754425,545.041016 466.683350,564.127380 447.582855,583.183777 
	C444.733734,586.026367 441.547821,588.531494 437.963013,591.679871 
	C437.963013,484.781433 437.963013,379.047424 437.963013,273.374542 
	C403.918121,273.374542 370.208008,273.374542 336.571777,273.374542 
	C336.571777,490.442993 336.571777,707.133301 336.571777,924.035156 
	C370.625305,924.035156 404.194611,924.035156 438.172058,924.035156 
	C438.172058,819.067749 438.172058,714.391907 438.172058,609.009277 
	C439.496918,610.053345 440.313232,610.564026 440.968811,611.232422 
	C467.795410,638.581543 494.614227,665.938293 521.419617,693.308167 
	C549.860840,722.348267 578.247925,751.441711 606.801208,780.371155 
	C608.932434,782.530457 612.201599,784.899597 614.954285,784.914856 
	C665.445496,785.194824 715.938721,785.132996 766.431458,785.125854 
	C768.304626,785.125549 770.177795,784.946167 772.050964,784.850220 
	C772.316833,784.337463 772.582642,783.824768 772.848511,783.312073 
	C710.405762,719.260986 647.962952,655.209839 585.477173,591.114624 
	C624.700256,552.196106 663.349304,513.847107 702.501343,475.001007 
M576.632996,357.092957 
	C576.223877,357.699127 575.814758,358.305267 574.932373,359.612640 
	C577.499084,359.612640 579.289917,359.611603 581.080811,359.612823 
	C641.044617,359.654175 701.008423,359.735413 760.972229,359.722198 
	C796.449524,359.714386 831.927185,359.608765 867.403381,359.364471 
	C870.089722,359.345978 873.569214,358.677612 875.326538,356.941376 
	C902.338684,330.254852 929.128845,303.343567 955.952026,276.466064 
	C956.794678,275.621704 957.439514,274.579895 958.658386,273.009125 
	C956.992065,273.009125 956.209717,273.008881 955.427429,273.009125 
	C917.449951,273.020691 879.472412,273.037201 841.494934,273.042816 
	C784.361389,273.051300 727.227051,273.192993 670.095398,272.865723 
	C663.470459,272.827759 659.084839,274.802063 654.577271,279.343506 
	C628.891235,305.222626 602.932861,330.831482 576.632996,357.092957 
M698.952332,914.548035 
	C700.922119,916.581909 703.059875,918.481567 704.819824,920.683228 
	C707.117859,923.557739 709.921265,924.418762 713.523682,924.412170 
	C777.494568,924.295593 841.465637,924.273682 905.436707,924.237061 
	C922.854919,924.227051 940.273071,924.235535 958.537354,924.235535 
	C957.152405,922.601807 956.134460,921.220642 954.937988,920.016968 
	C938.859070,903.840942 922.724243,887.720459 906.669128,871.520813 
	C896.822144,861.585266 887.201416,851.422058 877.213867,841.631714 
	C875.041199,839.502014 871.739929,837.219604 868.952026,837.211426 
	C790.821594,836.982239 712.690369,837.037048 634.559265,837.044983 
	C631.355957,837.045288 628.152649,837.044922 624.949341,837.044922 
	C624.702637,837.451904 624.455933,837.858948 624.209290,838.265930 
	C648.953064,863.530396 673.696777,888.794861 698.952332,914.548035 
z"/>
<path fill="#FEFEFE" opacity="1.000000" stroke="none" 
	d="
M702.249878,475.249573 
	C663.349304,513.847107 624.700256,552.196106 585.477173,591.114624 
	C647.962952,655.209839 710.405762,719.260986 772.848511,783.312073 
	C772.582642,783.824768 772.316833,784.337463 772.050964,784.850220 
	C770.177795,784.946167 768.304626,785.125549 766.431458,785.125854 
	C715.938721,785.132996 665.445496,785.194824 614.954285,784.914856 
	C612.201599,784.899597 608.932434,782.530457 606.801208,780.371155 
	C578.247925,751.441711 549.860840,722.348267 521.419617,693.308167 
	C494.614227,665.938293 467.795410,638.581543 440.968811,611.232422 
	C440.313232,610.564026 439.496918,610.053345 438.172058,609.009277 
	C438.172058,714.391907 438.172058,819.067749 438.172058,924.035156 
	C404.194611,924.035156 370.625305,924.035156 336.571777,924.035156 
	C336.571777,707.133301 336.571777,490.442993 336.571777,273.374542 
	C370.208008,273.374542 403.918121,273.374542 437.963013,273.374542 
	C437.963013,379.047424 437.963013,484.781433 437.963013,591.679871 
	C441.547821,588.531494 444.733734,586.026367 447.582855,583.183777 
	C466.683350,564.127380 485.754425,545.041016 504.755280,525.885315 
	C540.770630,489.576416 576.767090,453.248505 612.659729,416.818451 
	C616.028137,413.399658 619.360840,411.814606 624.336060,411.833038 
	C668.495300,411.996979 712.655701,411.850037 756.815796,411.795502 
	C759.392334,411.792328 761.968872,411.795105 765.433472,411.795105 
	C743.992493,433.329346 723.246887,454.165192 702.249878,475.249573 
z"/>
<path fill="#FDFDFD" opacity="1.000000" stroke="none" 
	d="
M576.850037,356.812561 
	C602.932861,330.831482 628.891235,305.222626 654.577271,279.343506 
	C659.084839,274.802063 663.470459,272.827759 670.095398,272.865723 
	C727.227051,273.192993 784.361389,273.051300 841.494934,273.042816 
	C879.472412,273.037201 917.449951,273.020691 955.427429,273.009125 
	C956.209717,273.008881 956.992065,273.009125 958.658386,273.009125 
	C957.439514,274.579895 956.794678,275.621704 955.952026,276.466064 
	C929.128845,303.343567 902.338684,330.254852 875.326538,356.941376 
	C873.569214,358.677612 870.089722,359.345978 867.403381,359.364471 
	C831.927185,359.608765 796.449524,359.714386 760.972229,359.722198 
	C701.008423,359.735413 641.044617,359.654175 581.080811,359.612823 
	C579.289917,359.611603 577.499084,359.612640 574.932373,359.612640 
	C575.814758,358.305267 576.223877,357.699127 576.850037,356.812561 
z"/>
<path fill="#FEFEFE" opacity="1.000000" stroke="none" 
	d="
M698.696411,914.303711 
	C673.696777,888.794861 648.953064,863.530396 624.209290,838.265930 
	C624.455933,837.858948 624.702637,837.451904 624.949341,837.044922 
	C628.152649,837.044922 631.355957,837.045288 634.559265,837.044983 
	C712.690369,837.037048 790.821594,836.982239 868.952026,837.211426 
	C871.739929,837.219604 875.041199,839.502014 877.213867,841.631714 
	C887.201416,851.422058 896.822144,861.585266 906.669128,871.520813 
	C922.724243,887.720459 938.859070,903.840942 954.937988,920.016968 
	C956.134460,921.220642 957.152405,922.601807 958.537354,924.235535 
	C940.273071,924.235535 922.854919,924.227051 905.436707,924.237061 
	C841.465637,924.273682 777.494568,924.295593 713.523682,924.412170 
	C709.921265,924.418762 707.117859,923.557739 704.819824,920.683228 
	C703.059875,918.481567 700.922119,916.581909 698.696411,914.303711 
z"/>
</svg>