<svg xmlns="http://www.w3.org/2000/svg" viewBox="0 0 1280 1280"><path d="M818 1281H1V1h1280v1280H818M702.501 475.001l62.932-63.206c-3.464 0-6.04-.003-8.617 0-44.16.055-88.32.202-132.48.038-4.975-.018-8.308 1.567-11.676 4.985-35.893 36.43-71.89 72.758-107.905 109.067-19 19.156-38.072 38.242-57.172 57.299-2.85 2.842-6.035 5.347-9.62 8.496V273.375H336.572v650.66h101.6V609.01c1.325 1.044 2.141 1.555 2.797 2.223 26.826 27.35 53.645 54.706 80.45 82.076 28.442 29.04 56.829 58.134 85.382 87.063 2.131 2.16 5.4 4.529 8.153 4.544 50.491.28 100.985.218 151.477.21 1.874 0 3.747-.179 5.62-.275l.798-1.538-187.372-192.197C624.7 552.196 663.35 513.847 702.501 475M576.633 357.093l-1.7 2.52h6.148c59.964.041 119.927.122 179.891.11 35.478-.009 70.955-.114 106.431-.359 2.687-.018 6.166-.686 7.924-2.423 27.012-26.686 53.802-53.597 80.625-80.475.843-.844 1.488-1.886 2.706-3.457h-3.23c-37.978.012-75.956.028-113.933.034-57.134.008-114.268.15-171.4-.177-6.625-.038-11.01 1.936-15.518 6.478-25.686 25.879-51.644 51.487-77.944 77.749m122.32 557.455c1.97 2.034 4.107 3.934 5.867 6.135 2.298 2.875 5.101 3.736 8.704 3.73 63.97-.117 127.942-.14 191.913-.176 17.418-.01 34.836-.001 53.1-.001-1.385-1.634-2.403-3.015-3.599-4.219-16.079-16.176-32.214-32.297-48.269-48.496-9.847-9.936-19.468-20.099-29.455-29.89-2.173-2.129-5.474-4.411-8.262-4.42-78.13-.229-156.262-.174-234.393-.166h-9.61l-.74 1.22c24.744 25.265 49.488 50.53 74.743 76.283z"/><path fill="#FEFEFE" d="M702.25 475.25L585.477 591.115 772.85 783.312l-.798 1.538c-1.873.096-3.746.276-5.62.276-50.492.007-100.986.069-151.477-.211-2.752-.015-6.022-2.385-8.153-4.544-28.553-28.93-56.94-58.023-85.381-87.063-26.806-27.37-53.625-54.726-80.451-82.076-.656-.668-1.472-1.179-2.797-2.223v315.026h-101.6v-650.66h101.391V591.68c3.585-3.149 6.77-5.654 9.62-8.496 19.1-19.057 38.171-38.143 57.172-57.299 36.016-36.309 72.012-72.636 107.905-109.067 3.368-3.418 6.7-5.003 11.676-4.985 44.16.164 88.32.017 132.48-.037 2.576-.004 5.153 0 8.617 0-21.44 21.533-42.186 42.37-63.183 63.454z"/><path fill="#FDFDFD" d="M576.85 356.813c26.083-25.982 52.041-51.59 77.727-77.47 4.508-4.54 8.893-6.515 15.518-6.477 57.132.327 114.266.185 171.4.177 37.977-.006 75.955-.022 113.932-.034h3.231c-1.218 1.57-1.863 2.613-2.706 3.457-26.823 26.878-53.613 53.789-80.625 80.475-1.758 1.737-5.237 2.405-7.924 2.423-35.476.245-70.953.35-106.43.358-59.965.013-119.928-.068-179.892-.11h-6.149a143.842 143.842 0 011.918-2.8z"/><path fill="#FEFEFE" d="M698.696 914.304c-25-25.51-49.743-50.774-74.487-76.038l.74-1.221h9.61c78.131-.008 156.263-.063 234.393.166 2.788.009 6.09 2.291 8.262 4.42 9.987 9.791 19.608 19.954 29.455 29.89 16.055 16.2 32.19 32.32 48.269 48.496 1.196 1.204 2.214 2.585 3.6 4.219-18.265 0-35.683-.009-53.101.001-63.971.037-127.942.059-191.913.175-3.603.007-6.406-.854-8.704-3.729-1.76-2.201-3.898-4.101-6.124-6.38z"/></svg>